<?xml version="1.0" encoding="utf-8"?>
<!-- Generator: Adobe Illustrator 26.0.1, SVG Export Plug-In . SVG Version: 6.00 Build 0)  -->
<svg version="1.1" id="Layer_1" xmlns="http://www.w3.org/2000/svg" xmlns:xlink="http://www.w3.org/1999/xlink" x="0px" y="0px"
	 viewBox="0 0 20 20" style="enable-background:new 0 0 20 20;" xml:space="preserve">
<style type="text/css">
	.st0{fill:none;}
</style>
<g id="그룹_178">
	<path id="패스_53" class="st0" d="M-0.2,0h20v20h-20V0z"/>
</g>
<g id="그룹_179" transform="translate(1.667 4.167)">
	<path id="패스_54" d="M15.8,4.8V2.5c0-1.4-1.1-2.5-2.5-2.5H10C9.4,0,8.8,0.2,8.3,0.6C7.9,0.2,7.3,0,6.7,0H3.3
		C2,0,0.8,1.1,0.8,2.5v2.3C0.3,5.3,0,6,0,6.7v5h1.7V10H15v1.7h1.7v-5C16.7,6,16.4,5.3,15.8,4.8z M10,1.7h3.3c0.5,0,0.8,0.4,0.8,0.8
		v1.7h-5V2.5C9.2,2,9.5,1.7,10,1.7z M2.5,2.5c0-0.5,0.4-0.8,0.8-0.8h3.3c0.5,0,0.8,0.4,0.8,0.8v1.7h-5V2.5z M1.7,8.3V6.7
		c0-0.5,0.4-0.8,0.8-0.8h11.7c0.5,0,0.8,0.4,0.8,0.8v1.7L1.7,8.3z"/>
</g>
</svg>
