<?xml version="1.0" encoding="utf-8"?>
<!-- Generator: Adobe Illustrator 26.0.1, SVG Export Plug-In . SVG Version: 6.00 Build 0)  -->
<svg version="1.1" id="Layer_1" xmlns="http://www.w3.org/2000/svg" xmlns:xlink="http://www.w3.org/1999/xlink" x="0px" y="0px"
	 viewBox="0 0 20 20" style="enable-background:new 0 0 20 20;" xml:space="preserve">
<style type="text/css">
	.st0{fill:none;}
</style>
<g id="그룹_178">
	<path id="패스_53" class="st0" d="M-0.2,0h20v20h-20V0z"/>
</g>
<g id="그룹_187" transform="translate(-7.695 -5)">
	<g id="그룹_186" transform="translate(7.695 5)">
		<path id="빼기_2" d="M12.2,16.5h-0.6l-0.4-1.9h-0.8V10c0-1,0.6-1.9,1.2-1.9V5.4c0-1,0.6-1.9,1.2-1.9h5c0.7,0,1.2,0.8,1.2,1.9
			v2.8c0.7,0,1.2,0.8,1.2,1.9v4.6h-0.8l-0.4,1.9h-0.6l-0.4-1.9h-5.4L12.2,16.5z M11.6,10v2.8h7.5V10H11.6z M12.9,5.4v2.8h5V5.4H12.9
			z"/>
		<path id="빼기_3" d="M1.5,16.5H0.9l-0.4-1.9h-0.8V10c0-1,0.6-1.9,1.2-1.9V5.4c0-1,0.6-1.9,1.2-1.9h5c0.7,0,1.2,0.8,1.2,1.9v2.8
			C9.1,8.1,9.6,9,9.6,10v4.6H8.8l-0.4,1.9H7.8l-0.4-1.9H1.9L1.5,16.5z M0.9,10v2.8h7.5V10H0.9z M2.1,5.4v2.8h5V5.4H2.1z"/>
	</g>
</g>
</svg>
